HIERARCHY
ROOT Hips
{
  OFFSET 51.2628 94.2025 15.2756
  CHANNELS 6 Xposition Yposition Zposition Zrotation Xrotation Yrotation
  JOINT spine
  {
    OFFSET 0 7.80059 0.448573
    CHANNELS 3 Zrotation Xrotation Yrotation
    JOINT spine1
    {
      OFFSET 0 10.1364 0
      CHANNELS 3 Zrotation Xrotation Yrotation
      JOINT spine2
      {
        OFFSET 0 9.71251 0
        CHANNELS 3 Zrotation Xrotation Yrotation
        JOINT Neck
        {
          OFFSET 0 24.9361 1.18887
          CHANNELS 3 Zrotation Xrotation Yrotation
          JOINT Head
          {
            OFFSET 0 7.53384 0
            CHANNELS 3 Zrotation Xrotation Yrotation
            End Site
            {
              OFFSET 0 18.2361 -6.01402
            }
          }
        }
        JOINT RightShoulder
        {
          OFFSET -4.08965 10.4888 -0.569457
          CHANNELS 3 Zrotation Xrotation Yrotation
          JOINT RightArm
          {
            OFFSET 0 13.757 0
            CHANNELS 3 Zrotation Xrotation Yrotation
            JOINT RightArmRoll
            {
              OFFSET 0 6.94478 0
              CHANNELS 3 Zrotation Xrotation Yrotation
              JOINT RightForeArm
              {
                OFFSET 0 20.2277 0
                CHANNELS 3 Zrotation Xrotation Yrotation
                JOINT RightForeArmRoll
                {
                  OFFSET 0 7.79312 0
                  CHANNELS 3 Zrotation Xrotation Yrotation
                  JOINT RightHand
                  {
                    OFFSET 0 15.6391 0
                    CHANNELS 3 Zrotation Xrotation Yrotation
                    End Site
                    {
                      OFFSET 0 0 0
                    }
                  }
                }
              }
            }
          }
        }
        JOINT LeftShoulder
        {
          OFFSET 4.08965 10.4888 -0.569457
          CHANNELS 3 Zrotation Xrotation Yrotation
          JOINT LeftArm
          {
            OFFSET 0 13.757 0
            CHANNELS 3 Zrotation Xrotation Yrotation
            JOINT LeftArmRoll
            {
              OFFSET 0 6.94478 0
              CHANNELS 3 Zrotation Xrotation Yrotation
              JOINT LeftForeArm
              {
                OFFSET 0 20.2277 0
                CHANNELS 3 Zrotation Xrotation Yrotation
                JOINT LeftForeArmRoll
                {
                  OFFSET 0 7.79312 0
                  CHANNELS 3 Zrotation Xrotation Yrotation
                  JOINT LeftHand
                  {
                    OFFSET 0 15.6391 0
                    CHANNELS 3 Zrotation Xrotation Yrotation
                    End Site
                    {
                      OFFSET 0 0 0
                    }
                  }
                }
              }
            }
          }
        }
      }
    }
  }
  JOINT RightUpLeg
  {
    OFFSET -6.91416 -1.26788 -1.06358
    CHANNELS 3 Zrotation Xrotation Yrotation
    JOINT RightUpLegRoll
    {
      OFFSET 0 18.3378 0
      CHANNELS 3 Zrotation Xrotation Yrotation
      JOINT RightLeg
      {
        OFFSET 0 -22.7085 0
        CHANNELS 3 Zrotation Xrotation Yrotation
        JOINT RightLegRoll
        {
          OFFSET 0 22.7828 0
          CHANNELS 3 Zrotation Xrotation Yrotation
          JOINT RightFoot
          {
            OFFSET 0 18.9629 0
            CHANNELS 3 Zrotation Xrotation Yrotation
            JOINT RightToeBase
            {
              OFFSET 0 15.852 0
              CHANNELS 3 Zrotation Xrotation Yrotation
              End Site
              {
                OFFSET 0.00671906 7.67701 -0.884892
              }
            }
          }
        }
      }
    }
  }
  JOINT LeftUpLeg
  {
    OFFSET 6.91416 -1.26788 -1.06358
    CHANNELS 3 Zrotation Xrotation Yrotation
    JOINT LeftUpLegRoll
    {
      OFFSET 0 18.3379 0
      CHANNELS 3 Zrotation Xrotation Yrotation
      JOINT LeftLeg
      {
        OFFSET 0 22.7084 0
        CHANNELS 3 Zrotation Xrotation Yrotation
        JOINT LeftLegRoll
        {
          OFFSET 0 22.9934 0
          CHANNELS 3 Zrotation Xrotation Yrotation
          JOINT LeftFoot
          {
            OFFSET 0 18.7522 0
            CHANNELS 3 Zrotation Xrotation Yrotation
            JOINT LeftToeBase
            {
              OFFSET 0 15.852 0
              CHANNELS 3 Zrotation Xrotation Yrotation
              End Site
              {
                OFFSET -0.030112 7.67701 -0.884893
              }
            }
          }
        }
      }
    }
  }
}
MOTION
Frames: 13
Frame Time: 0.00208333
51.5125 94.1294 13.2161 -0.763891 -6.28377 2.57487 -0.0146485 -0.647847 0.255526 -0.0231312 2.7071 0.508227 -0.0291948 4.35216 0.508841 -0.748125 18.8497 -2.6138 6.38886 -16.1209 -1.28762 78.3995 -4.68709 -4.12747 94.1805 3.9883 18.651 8.71226e-007 1.94511e-006 1.74444e-006 9.26518 25.5489 -3.63232 -9.44393e-006 1.45155e-006 -3.00676 8.02913 -4.95165 0.697746 -62.7123 -0.929937 1.01918 -107.809 -0.911863 -13.6025 2.51688e-006 6.89891e-007 -3.38646e-006 -5.17985 20.7052 2.23498 1.96877e-005 -2.25768e-006 3 -8.0296 -4.95154 -0.697701 178.283 -1.14737 0.641116 180 7.01554e-015 178.953 177.565 9.84817 179.712 -2.2066e-006 -3.05657e-006 0.111731 -17.7909 68.3911 19.8847 8.13649 25.2327 -3.48774 179.859 -0.958327 6.48819 4.54188e-006 -4.6773e-006 -1.52189 -4.93332 -13.9404 -0.401644 -1.13523e-006 -4.47681e-006 -0.338533 27.6748 72.8546 -25.3368 -8.13649 25.2327 3.48773 
51.5127 94.1318 13.2152 -0.765514 -6.30461 2.6117 -0.0168458 -0.641981 0.255309 -0.0279759 2.7189 0.508386 -0.034052 4.36396 0.509097 -0.664665 18.7962 -2.64379 6.3282 -16.0796 -1.30772 78.4802 -4.68463 -4.13112 94.0768 4.03492 18.7323 8.71226e-007 1.94511e-006 1.74444e-006 9.22488 25.5307 -3.62213 -9.44393e-006 1.45155e-006 -3.00676 8.02913 -4.95165 0.697746 -62.6698 -0.93347 1.01659 -107.866 -0.847908 -13.4753 2.51688e-006 6.89891e-007 -3.38646e-006 -5.22521 20.8256 2.25467 1.96877e-005 -2.25768e-006 3 -8.0296 -4.95154 -0.697701 178.282 -1.18464 0.65758 180 7.01554e-015 178.953 177.544 9.827 179.715 -2.2066e-006 -3.05657e-006 0.111421 -17.7969 68.3828 19.8752 8.13649 25.2327 -3.48774 179.868 -0.966867 6.48176 4.54188e-006 -4.6773e-006 -1.52211 -4.93294 -13.9507 -0.401894 -1.13523e-006 -4.47681e-006 -0.338939 27.677 72.8545 -25.3368 -8.13649 25.2327 3.48773 
51.509 94.1327 13.2145 -0.766487 -6.3261 2.64809 -0.0191739 -0.635832 0.255216 -0.0330991 2.7313 0.508822 -0.0391917 4.37636 0.509636 -0.581081 18.7391 -2.6739 6.26691 -16.0354 -1.3282 78.5599 -4.68251 -4.13484 93.9758 4.08084 18.8116 8.71226e-007 1.94511e-006 1.74444e-006 9.18539 25.5143 -3.61231 -9.44393e-006 1.45155e-006 -3.00676 8.02913 -4.95165 0.697746 -62.6267 -0.938484 1.01478 -107.924 -0.782062 -13.3503 2.51688e-006 6.89891e-007 -3.38646e-006 -5.26831 20.9461 2.2737 1.96877e-005 -2.25768e-006 3 -8.0296 -4.95154 -0.697701 178.28 -1.22269 0.676302 180 7.01554e-015 178.953 177.521 9.80594 179.719 -2.2066e-006 -3.05657e-006 0.111136 -17.804 68.3747 19.8657 8.13649 25.2327 -3.48774 179.875 -0.97688 6.47553 4.54188e-006 -4.6773e-006 -1.52232 -4.93282 -13.9599 -0.402153 -1.13523e-006 -4.47681e-006 -0.339281 27.678 72.854 -25.336 -8.13649 25.2327 3.48773 
51.5114 94.1324 13.2128 -0.766997 -6.34805 2.68418 -0.0215937 -0.629485 0.255209 -0.0384175 2.74413 0.509452 -0.0445294 4.38919 0.510372 -0.497434 18.6794 -2.7041 6.20519 -15.9893 -1.34895 78.6389 -4.68061 -4.13859 93.8767 4.12624 18.8896 8.71226e-007 1.94511e-006 1.74444e-006 9.14648 25.4992 -3.60274 -9.44393e-006 1.45155e-006 -3.00676 8.02913 -4.95165 0.697746 -62.5832 -0.944534 1.01353 -107.984 -0.714871 -13.2269 2.51688e-006 6.89891e-007 -3.38646e-006 -5.30986 21.0666 2.29228 1.96877e-005 -2.25768e-006 3 -8.0296 -4.95154 -0.697701 178.276 -1.26131 0.696604 180 7.01554e-015 178.952 177.497 9.78495 179.723 -2.2066e-006 -3.05657e-006 0.110871 -17.8119 68.3666 19.8561 8.13649 25.2327 -3.48774 179.883 -0.987926 6.46943 4.54188e-006 -4.6773e-006 -1.52252 -4.93287 -13.9684 -0.402419 -1.13523e-006 -4.47681e-006 -0.339578 27.6782 72.8532 -25.3347 -8.13649 25.2327 3.48773 
51.5086 94.061 13.1916 -0.767228 -6.37027 2.72009 -0.0240659 -0.623025 0.255252 -0.0438477 2.7572 0.510192 -0.0499804 4.40225 0.511222 -0.413782 18.6183 -2.73433 6.14324 -15.9421 -1.36985 78.7174 -4.67884 -4.14237 93.7787 4.17133 18.9668 8.71226e-007 1.94511e-006 1.74444e-006 9.1079 25.4847 -3.59333 -9.44393e-006 1.45155e-006 -3.00676 8.02913 -4.95165 0.697746 -62.5393 -0.951176 1.0126 -108.044 -0.646882 -13.1045 2.51688e-006 6.89891e-007 -3.38646e-006 -5.35055 21.1871 2.31062 1.96877e-005 -2.25768e-006 3 -8.0296 -4.95154 -0.697701 178.272 -1.30023 0.717809 180 7.01554e-015 178.952 177.472 9.76404 179.727 -2.2066e-006 -3.05657e-006 0.110616 -17.8201 68.3586 19.8466 8.13649 25.2327 -3.48774 179.89 -0.999561 6.46342 4.54188e-006 -4.6773e-006 -1.52273 -4.93302 -13.9765 -0.402689 -1.13523e-006 -4.47681e-006 -0.339849 27.6781 72.8521 -25.333 -8.13649 25.2327 3.48773 
51.5095 94.0705 13.1942 -0.767369 -6.39254 2.75596 -0.0265513 -0.616537 0.255307 -0.0493061 2.77032 0.510961 -0.05546 4.41538 0.5121 -0.33018 18.5569 -2.76455 6.08126 -15.8945 -1.39077 78.7958 -4.67711 -4.14616 93.6809 4.2163 19.0438 8.71226e-007 1.94511e-006 1.74444e-006 9.06941 25.4703 -3.58395 -9.44393e-006 1.45155e-006 -3.00676 8.02913 -4.95165 0.697746 -62.4954 -0.957966 1.01174 -108.104 -0.57864 -12.9823 2.51688e-006 6.89891e-007 -3.38646e-006 -5.39109 21.3076 2.32893 1.96877e-005 -2.25768e-006 3 -8.0296 -4.95154 -0.697701 178.268 -1.33924 0.739241 180 7.01553e-015 178.951 177.447 9.74312 179.731 -2.2066e-006 -3.05657e-006 0.110363 -17.8285 68.3506 19.837 8.13649 25.2327 -3.48774 179.897 -1.01134 6.45742 4.54188e-006 -4.6773e-006 -1.52293 -4.9332 -13.9844 -0.40296 -1.13523e-006 -4.47681e-006 -0.340114 27.6778 72.851 -25.3312 -8.13649 25.2327 3.48773 
51.5079 94.1314 13.2167 -0.767606 -6.41468 2.79192 -0.0290104 -0.610106 0.255338 -0.054709 2.78333 0.511674 -0.0608835 4.42838 0.512922 -0.246682 18.4961 -2.79473 6.01945 -15.8475 -1.41161 78.8745 -4.6753 -4.14993 93.5823 4.26136 19.1213 8.71226e-007 1.94511e-006 1.74444e-006 9.03076 25.4557 -3.5745 -9.44393e-006 1.45155e-006 -3.00676 8.02913 -4.95165 0.697746 -62.4517 -0.964461 1.01073 -108.165 -0.510692 -12.8596 2.51688e-006 6.89891e-007 -3.38646e-006 -5.43219 21.4282 2.34742 1.96877e-005 -2.25768e-006 3 -8.0296 -4.95154 -0.697701 178.264 -1.37808 0.760223 180 7.01553e-015 178.951 177.422 9.72219 179.735 -2.2066e-006 -3.05657e-006 0.110105 -17.8367 68.3425 19.8275 8.13649 25.2327 -3.48774 179.904 -1.02283 6.45139 4.54188e-006 -4.6773e-006 -1.52313 -4.93332 -13.9926 -0.403229 -1.13523e-006 -4.47681e-006 -0.340392 27.6777 72.85 -25.3297 -8.13649 25.2327 3.48773 
51.5048 94.1093 13.2059 -0.768128 -6.43648 2.82811 -0.031404 -0.603815 0.255306 -0.0599729 2.79603 0.512248 -0.066166 4.44108 0.513602 -0.163336 18.4372 -2.82483 5.95801 -15.802 -1.43225 78.9537 -4.67334 -4.15368 93.4822 4.30668 19.1997 8.71226e-007 1.94511e-006 1.74444e-006 8.99171 25.4401 -3.56488 -9.44393e-006 1.45155e-006 -3.00676 8.02913 -4.95165 0.697746 -62.4082 -0.970215 1.00932 -108.225 -0.443584 -12.7359 2.51688e-006 6.89891e-007 -3.38646e-006 -5.47454 21.5486 2.3663 1.96877e-005 -2.25768e-006 3 -8.0296 -4.95154 -0.697701 178.261 -1.41653 0.780078 180 7.01553e-015 178.951 177.398 9.70118 179.739 -2.2066e-006 -3.05657e-006 0.109834 -17.8444 68.3344 19.818 8.13649 25.2327 -3.48774 179.911 -1.03358 6.44526 4.54188e-006 -4.6773e-006 -1.52334 -4.93332 -14.0013 -0.403493 -1.13523e-006 -4.47681e-006 -0.340701 27.6782 72.8493 -25.3285 -8.13649 25.2327 3.48773 
51.5002 94.1313 13.2003 -0.769122 -6.45775 2.86465 -0.0336928 -0.597751 0.255176 -0.0650139 2.80826 0.512601 -0.0712226 4.45331 0.514056 -0.0801908 18.3811 -2.85479 5.89712 -15.7587 -1.45256 79.0337 -4.67112 -4.15737 93.3796 4.35248 19.2798 8.71226e-007 1.94511e-006 1.74444e-006 8.95202 25.4232 -3.55496 -9.44393e-006 1.45155e-006 -3.00676 8.02913 -4.95165 0.697746 -62.3653 -0.974784 1.00728 -108.284 -0.377863 -12.6104 2.51688e-006 6.89891e-007 -3.38646e-006 -5.51886 21.669 2.38579 1.96877e-005 -2.25768e-006 3 -8.0296 -4.95154 -0.697701 178.259 -1.45435 0.798128 180 7.01553e-015 178.95 177.376 9.6801 179.742 -2.2066e-006 -3.05657e-006 0.109542 -17.8512 68.3263 19.8085 8.13649 25.2327 -3.48774 179.919 -1.04316 6.43897 4.54188e-006 -4.6773e-006 -1.52355 -4.93312 -14.0108 -0.403749 -1.13523e-006 -4.47681e-006 -0.341062 27.6795 72.8489 -25.3279 -8.13649 25.2327 3.48773 
51.5013 94.1281 13.2008 -0.770776 -6.4783 2.90168 -0.0358374 -0.591998 0.254909 -0.0697481 2.81981 0.512649 -0.0759682 4.46486 0.514199 0.00270835 18.3291 -2.88459 5.83697 -15.7185 -1.47244 79.1148 -4.66854 -4.161 93.2736 4.39894 19.362 8.71226e-007 1.94511e-006 1.74444e-006 8.91145 25.4043 -3.54465 -9.44393e-006 1.45155e-006 -3.00676 8.02913 -4.95165 0.697746 -62.3231 -0.977725 1.00437 -108.343 -0.314077 -12.4823 2.51688e-006 6.89891e-007 -3.38646e-006 -5.56585 21.7894 2.4061 1.96877e-005 -2.25768e-006 3 -8.0296 -4.95154 -0.697701 178.259 -1.4913 0.813696 180 7.01553e-015 178.95 177.356 9.65887 179.746 -2.2066e-006 -3.05657e-006 0.109221 -17.8568 68.318 19.7991 8.13649 25.2327 -3.48774 179.928 -1.05111 6.43247 4.54188e-006 -4.6773e-006 -1.52377 -4.93264 -14.0215 -0.403996 -1.13523e-006 -4.47681e-006 -0.341494 27.6821 72.8491 -25.3283 -8.13649 25.2327 3.48773 
51.5035 94.1309 13.1941 -0.773278 -6.49792 2.93934 -0.0377984 -0.58664 0.254469 -0.0740917 2.83053 0.512309 -0.0803179 4.47558 0.513947 0.085319 18.2821 -2.91418 5.77777 -15.6823 -1.49177 79.1974 -4.6655 -4.16455 93.1634 4.44625 19.447 8.71226e-007 1.94511e-006 1.74444e-006 8.86976 25.383 -3.53383 -9.44393e-006 1.45155e-006 -3.00676 8.02913 -4.95165 0.697746 -62.2818 -0.978592 1.00036 -108.4 -0.252773 -12.3512 2.51688e-006 6.89891e-007 -3.38646e-006 -5.61623 21.9096 2.42744 1.96877e-005 -2.25768e-006 3 -8.0296 -4.95154 -0.697701 178.262 -1.52714 0.826106 180 7.01553e-015 178.95 177.339 9.63748 179.749 -2.2066e-006 -3.05657e-006 0.108863 -17.861 68.3097 19.7897 8.13649 25.2327 -3.48774 179.938 -1.057 6.42569 4.54188e-006 -4.6773e-006 -1.524 -4.9318 -14.0338 -0.404228 -1.13523e-006 -4.47681e-006 -0.342016 27.6862 72.8499 -25.3298 -8.13649 25.2327 3.48773 
51.5028 94.1318 13.1921 -0.776819 -6.51641 2.97774 -0.0395366 -0.581763 0.253818 -0.0779608 2.84022 0.511498 -0.0841864 4.48527 0.513214 0.167601 18.2412 -2.94352 5.7197 -15.6509 -1.51043 79.2818 -4.66192 -4.168 93.0481 4.4946 19.5353 8.71226e-007 1.94511e-006 1.74444e-006 8.8267 25.3588 -3.5224 -9.44393e-006 1.45155e-006 -3.00676 8.02913 -4.95165 0.697746 -62.2417 -0.976943 0.995009 -108.456 -0.194501 -12.2161 2.51688e-006 6.89891e-007 -3.38646e-006 -5.67071 22.0297 2.45004 1.96877e-005 -2.25768e-006 3 -8.0296 -4.95154 -0.697701 178.268 -1.56163 0.834679 180 7.01553e-015 178.949 177.325 9.61589 179.751 -2.2066e-006 -3.05657e-006 0.10846 -17.8634 68.3012 19.7804 8.13649 25.2327 -3.48774 179.948 -1.06038 6.41858 4.54188e-006 -4.6773e-006 -1.52425 -4.93054 -14.0478 -0.404445 -1.13523e-006 -4.47681e-006 -0.342647 27.6921 72.8515 -25.3326 -8.13649 25.2327 3.48773 
51.4954 94.1303 13.1935 -0.781586 -6.53358 3.01703 -0.0410124 -0.577452 0.25292 -0.0812714 2.84871 0.510133 -0.0874888 4.49376 0.511916 0.249517 18.2075 -2.97257 5.66294 -15.6252 -1.52831 79.3683 -4.65768 -4.17132 92.9267 4.54417 19.6276 8.71226e-007 1.94511e-006 1.74444e-006 8.78205 25.331 -3.51025 -9.44393e-006 1.45155e-006 -3.00676 8.02913 -4.95165 0.697746 -62.2028 -0.972332 0.988078 -108.51 -0.139809 -12.0765 2.51688e-006 6.89891e-007 -3.38646e-006 -5.73001 22.1496 2.4741 1.96877e-005 -2.25768e-006 3 -8.0296 -4.95154 -0.697701 178.277 -1.59454 0.838739 180 7.01553e-015 178.949 177.316 9.59406 179.753 -2.2066e-006 -3.05657e-006 0.108005 -17.8636 68.2926 19.7711 8.13649 25.2327 -3.48774 179.96 -1.06082 6.41108 4.54188e-006 -4.6773e-006 -1.52451 -4.92877 -14.064 -0.404642 -1.13523e-006 -4.47681e-006 -0.343406 27.7003 72.854 -25.3371 -8.13649 25.2327 3.48773 
